<svg id="Layer_1" data-name="Layer 1" xmlns="http://www.w3.org/2000/svg" viewBox="0 0 191 69"><defs><style>.cls-1{fill:none;stroke:#576a62;stroke-miterlimit:10;stroke-width:3px;}</style></defs><title>arrow</title><polyline class="cls-1" points="188.66 66.04 156.84 34.22 188.66 2.4"/><polyline class="cls-1" points="177.66 66.04 145.84 34.22 177.66 2.4"/><polyline class="cls-1" points="166.66 66.04 134.84 34.22 166.66 2.4"/><polyline class="cls-1" points="155.66 66.04 123.84 34.22 155.66 2.4"/><polyline class="cls-1" points="144.66 66.04 112.84 34.22 144.66 2.4"/><polyline class="cls-1" points="133.66 66.04 101.84 34.22 133.66 2.4"/><polyline class="cls-1" points="122.66 66.04 90.84 34.22 122.66 2.4"/><polyline class="cls-1" points="111.66 66.04 79.84 34.22 111.66 2.4"/><polyline class="cls-1" points="100.66 66.04 68.84 34.22 100.66 2.4"/><polyline class="cls-1" points="89.66 66.04 57.84 34.22 89.66 2.4"/><polyline class="cls-1" points="78.66 66.04 46.84 34.22 78.66 2.4"/><polyline class="cls-1" points="67.66 66.04 35.84 34.22 67.66 2.4"/><polyline class="cls-1" points="56.66 66.04 24.84 34.22 56.66 2.4"/><polyline class="cls-1" points="45.66 66.04 13.84 34.22 45.66 2.4"/><polyline class="cls-1" points="34.66 66.04 2.84 34.22 34.66 2.4"/></svg>