<svg id="Layer_1" data-name="Layer 1" xmlns="http://www.w3.org/2000/svg" viewBox="0 0 191 68"><defs><style>.cls-1{fill:none;stroke:#576a62;stroke-miterlimit:10;stroke-width:3px;}</style></defs><title>arrow</title><polyline class="cls-1" points="2.08 1.92 33.9 33.74 2.08 65.56"/><polyline class="cls-1" points="13.08 1.92 44.9 33.74 13.08 65.56"/><polyline class="cls-1" points="24.08 1.92 55.9 33.74 24.08 65.56"/><polyline class="cls-1" points="35.08 1.92 66.9 33.74 35.08 65.56"/><polyline class="cls-1" points="46.08 1.92 77.9 33.74 46.08 65.56"/><polyline class="cls-1" points="57.08 1.92 88.9 33.74 57.08 65.56"/><polyline class="cls-1" points="68.08 1.92 99.9 33.74 68.08 65.56"/><polyline class="cls-1" points="79.08 1.92 110.9 33.74 79.08 65.56"/><polyline class="cls-1" points="90.08 1.92 121.9 33.74 90.08 65.56"/><polyline class="cls-1" points="101.08 1.92 132.9 33.74 101.08 65.56"/><polyline class="cls-1" points="112.08 1.92 143.9 33.74 112.08 65.56"/><polyline class="cls-1" points="123.08 1.92 154.9 33.74 123.08 65.56"/><polyline class="cls-1" points="134.08 1.92 165.9 33.74 134.08 65.56"/><polyline class="cls-1" points="145.08 1.92 176.9 33.74 145.08 65.56"/><polyline class="cls-1" points="156.08 1.92 187.9 33.74 156.08 65.56"/></svg>